<svg width="60" height="60" viewBox="0 0 60 60" fill="none" xmlns="http://www.w3.org/2000/svg">
<path d="M55.32 39.1401L38.425 38.4226C37.885 38.3801 35.625 38.2801 35.625 35.3901C35.625 32.6001 37.87 32.4226 38.455 32.3576L55.32 31.6401C56.805 31.6551 58.125 33.3326 58.125 35.3901C58.125 37.4501 56.805 39.1251 55.32 39.1401ZM38.745 23.7101L51.2525 22.7351C52.735 22.7351 54.375 24.6901 54.375 26.7051V26.7426C54.375 28.6551 53.07 30.2151 51.46 30.2351L38.75 30.0326C35.625 29.6476 35.625 27.7526 35.625 26.9401C35.625 24.2576 38.18 23.7576 38.7425 23.7101H38.745ZM49.4325 56.2501L38.96 55.2026C36.09 55.0951 35.6225 53.1826 35.6225 51.9826C35.6225 49.8301 37.195 49.1001 38.7475 49.1001L49.4125 48.7501C51.115 48.7751 52.4975 50.4501 52.4975 52.5001C52.4975 54.5501 51.13 56.2101 49.4325 56.2501ZM53.4575 47.8701L38.6475 47.1451C37.5475 47.0701 35.6225 46.7926 35.6225 44.0526C35.6225 42.6476 36.1325 41.0526 38.5525 40.8276L53.4575 40.3726C55 40.3876 56.2475 41.9526 56.2475 44.0526C56.2475 46.1526 54.9975 47.8526 53.46 47.8701H53.4575Z" fill="#D46A29"/>
<path d="M16.33 27.285L16.4475 27.05C16.2782 27.4089 16.0012 27.706 15.655 27.9C15.9262 27.7523 16.1578 27.5413 16.33 27.285Z" fill="#D46A29"/>
<path d="M37.0375 6.1675C35.9325 4.6075 34.1025 3.75 31.875 3.75C31.5273 3.75024 31.1865 3.84717 30.8907 4.02994C30.5949 4.21272 30.3558 4.47414 30.2 4.785C29.8475 5.4975 28.41 7.5975 26.895 9.815C24.785 12.9 22.165 16.7375 20.42 19.75L20.4075 19.775C18.0075 23.935 16.85 26.2125 16.4425 27.0425L16.3275 27.2775C16.1534 27.5327 15.9201 27.742 15.6475 27.8875C15.3776 28.0383 15.0742 28.119 14.765 28.1225H11.8C9.16773 28.1225 6.64326 29.1682 4.78197 31.0295C2.92067 32.8908 1.875 35.4152 1.875 38.0475V42.5725C1.87467 43.8761 2.13115 45.167 2.62978 46.3714C3.12841 47.5758 3.85943 48.6703 4.78108 49.5922C5.70274 50.514 6.79697 51.2453 8.00129 51.7443C9.20561 52.2432 10.4964 52.5 11.8 52.5H17.5175C17.9175 52.5 18.3075 52.62 18.64 52.84C21.3275 54.595 26.4075 56.25 31.875 56.25C32.75 56.25 33.5375 56.2325 34.25 56.205C34.4195 56.1986 34.584 56.1463 34.7261 56.0538C34.8682 55.9612 34.9825 55.8319 35.0569 55.6795C35.1313 55.5271 35.163 55.3574 35.1486 55.1884C35.1341 55.0195 35.0742 54.8576 34.975 54.72L34.965 54.7025C33.96 53.2525 33.75 51.6775 33.75 50.625C33.75 49.625 33.955 48.6375 34.3575 47.7225C34.4723 47.4631 34.5317 47.1825 34.5317 46.8988C34.5317 46.615 34.4723 46.3344 34.3575 46.075C33.9565 45.1423 33.7497 44.1377 33.7497 43.1225C33.7497 42.1073 33.9565 41.1027 34.3575 40.17C34.4717 39.9117 34.5307 39.6324 34.5307 39.35C34.5307 39.0676 34.4717 38.7883 34.3575 38.53C33.9583 37.6131 33.7522 36.6238 33.7522 35.6238C33.7522 34.6237 33.9583 33.6344 34.3575 32.7175C34.4774 32.4466 34.5393 32.1537 34.5393 31.8575C34.5393 31.5613 34.4774 31.2684 34.3575 30.9975C33.9398 30.0569 33.7325 29.0365 33.75 28.0075C33.75 27.0475 33.985 25.5125 34.6875 24.3525C34.8298 24.1134 34.9156 23.8451 34.9386 23.5678C34.9615 23.2906 34.921 23.0117 34.82 22.7525C34.7734 22.63 34.7293 22.5067 34.6875 22.3825C34.5472 21.9443 34.513 21.479 34.5875 21.025C34.9375 18.76 35.72 16.775 36.55 14.68C36.91 13.7675 37.285 12.825 37.63 11.835C38.35 9.7775 38.135 7.71 37.0375 6.1675Z" fill="#D46A29"/>
</svg>
