<svg width="60" height="60" viewBox="0 0 60 60" fill="none" xmlns="http://www.w3.org/2000/svg">
<path d="M12 12C12 10.4087 12.6321 8.88258 13.7574 7.75736C14.8826 6.63214 16.4087 6 18 6H42C43.5913 6 45.1174 6.63214 46.2426 7.75736C47.3679 8.88258 48 10.4087 48 12V48C48 49.5913 47.3679 51.1174 46.2426 52.2426C45.1174 53.3679 43.5913 54 42 54H18C16.4087 54 14.8826 53.3679 13.7574 52.2426C12.6321 51.1174 12 49.5913 12 48V12ZM18 13.5V19.5C18 19.8978 18.158 20.2794 18.4393 20.5607C18.7206 20.842 19.1022 21 19.5 21H40.5C40.8978 21 41.2794 20.842 41.5607 20.5607C41.842 20.2794 42 19.8978 42 19.5V13.5C42 13.1022 41.842 12.7206 41.5607 12.4393C41.2794 12.158 40.8978 12 40.5 12H19.5C19.1022 12 18.7206 12.158 18.4393 12.4393C18.158 12.7206 18 13.1022 18 13.5ZM18 25.5V28.5C18 28.8978 18.158 29.2794 18.4393 29.5607C18.7206 29.842 19.1022 30 19.5 30H22.5C22.8978 30 23.2794 29.842 23.5607 29.5607C23.842 29.2794 24 28.8978 24 28.5V25.5C24 25.1022 23.842 24.7206 23.5607 24.4393C23.2794 24.158 22.8978 24 22.5 24H19.5C19.1022 24 18.7206 24.158 18.4393 24.4393C18.158 24.7206 18 25.1022 18 25.5ZM19.5 33C19.1022 33 18.7206 33.158 18.4393 33.4393C18.158 33.7206 18 34.1022 18 34.5V37.5C18 37.8978 18.158 38.2794 18.4393 38.5607C18.7206 38.842 19.1022 39 19.5 39H22.5C22.8978 39 23.2794 38.842 23.5607 38.5607C23.842 38.2794 24 37.8978 24 37.5V34.5C24 34.1022 23.842 33.7206 23.5607 33.4393C23.2794 33.158 22.8978 33 22.5 33H19.5ZM18 43.5V46.5C18 46.697 18.0388 46.892 18.1142 47.074C18.1896 47.256 18.3001 47.4214 18.4393 47.5607C18.5786 47.6999 18.744 47.8104 18.926 47.8858C19.108 47.9612 19.303 48 19.5 48H22.5C22.697 48 22.892 47.9612 23.074 47.8858C23.256 47.8104 23.4214 47.6999 23.5607 47.5607C23.6999 47.4214 23.8104 47.256 23.8858 47.074C23.9612 46.892 24 46.697 24 46.5V43.5C24 43.1022 23.842 42.7206 23.5607 42.4393C23.2794 42.158 22.8978 42 22.5 42H19.5C19.1022 42 18.7206 42.158 18.4393 42.4393C18.158 42.7206 18 43.1022 18 43.5ZM28.5 24C28.1022 24 27.7206 24.158 27.4393 24.4393C27.158 24.7206 27 25.1022 27 25.5V28.5C27 28.8978 27.158 29.2794 27.4393 29.5607C27.7206 29.842 28.1022 30 28.5 30H31.5C31.8978 30 32.2794 29.842 32.5607 29.5607C32.842 29.2794 33 28.8978 33 28.5V25.5C33 25.1022 32.842 24.7206 32.5607 24.4393C32.2794 24.158 31.8978 24 31.5 24H28.5ZM27 34.5V37.5C27 37.8978 27.158 38.2794 27.4393 38.5607C27.7206 38.842 28.1022 39 28.5 39H31.5C31.8978 39 32.2794 38.842 32.5607 38.5607C32.842 38.2794 33 37.8978 33 37.5V34.5C33 34.1022 32.842 33.7206 32.5607 33.4393C32.2794 33.158 31.8978 33 31.5 33H28.5C28.1022 33 27.7206 33.158 27.4393 33.4393C27.158 33.7206 27 34.1022 27 34.5ZM28.5 42C28.1022 42 27.7206 42.158 27.4393 42.4393C27.158 42.7206 27 43.1022 27 43.5V46.5C27 46.697 27.0388 46.892 27.1142 47.074C27.1896 47.256 27.3001 47.4214 27.4393 47.5607C27.5786 47.6999 27.744 47.8104 27.926 47.8858C28.108 47.9612 28.303 48 28.5 48H31.5C31.697 48 31.892 47.9612 32.074 47.8858C32.256 47.8104 32.4214 47.6999 32.5607 47.5607C32.6999 47.4214 32.8104 47.256 32.8858 47.074C32.9612 46.892 33 46.697 33 46.5V43.5C33 43.1022 32.842 42.7206 32.5607 42.4393C32.2794 42.158 31.8978 42 31.5 42H28.5ZM36 25.5V28.5C36 28.8978 36.158 29.2794 36.4393 29.5607C36.7206 29.842 37.1022 30 37.5 30H40.5C40.8978 30 41.2794 29.842 41.5607 29.5607C41.842 29.2794 42 28.8978 42 28.5V25.5C42 25.1022 41.842 24.7206 41.5607 24.4393C41.2794 24.158 40.8978 24 40.5 24H37.5C37.1022 24 36.7206 24.158 36.4393 24.4393C36.158 24.7206 36 25.1022 36 25.5ZM37.5 33C37.1022 33 36.7206 33.158 36.4393 33.4393C36.158 33.7206 36 34.1022 36 34.5V46.5C36 46.8978 36.158 47.2794 36.4393 47.5607C36.7206 47.842 37.1022 48 37.5 48H40.5C40.697 48 40.892 47.9612 41.074 47.8858C41.256 47.8104 41.4214 47.6999 41.5607 47.5607C41.6999 47.4214 41.8104 47.256 41.8858 47.074C41.9612 46.892 42 46.697 42 46.5V34.5C42 34.1022 41.842 33.7206 41.5607 33.4393C41.2794 33.158 40.8978 33 40.5 33H37.5Z" fill="#D46A29"/>
</svg>
