<svg width="60" height="60" viewBox="0 0 60 60" fill="none" xmlns="http://www.w3.org/2000/svg">
<g clip-path="url(#clip0_32_46)">
<path d="M30 39.3824C26.5905 39.3791 23.2348 38.5312 20.233 36.9144C17.2311 35.2977 14.6765 32.9625 12.7975 30.1174L2.345 48.7574H15.82L22.6175 60.0074L32.2875 39.2549C31.5279 39.3386 30.7642 39.3804 30 39.3799V39.3824Z" fill="#D46A29"/>
<path d="M47.2275 30.0775C44.7523 33.8265 41.1261 36.6701 36.895 38.18L32.075 48.6825L37.3825 59.9925L44.1825 48.7425H57.6575L47.225 30.075L47.2275 30.0775Z" fill="#D46A29"/>
<path d="M30 24.375C31.4918 24.375 32.9226 23.7824 33.9775 22.7275C35.0324 21.6726 35.625 20.2418 35.625 18.75C35.625 17.2582 35.0324 15.8274 33.9775 14.7725C32.9226 13.7176 31.4918 13.125 30 13.125C28.5082 13.125 27.0774 13.7176 26.0225 14.7725C24.9676 15.8274 24.375 17.2582 24.375 18.75C24.375 20.2418 24.9676 21.6726 26.0225 22.7275C27.0774 23.7824 28.5082 24.375 30 24.375Z" fill="#D46A29"/>
<path d="M30 1.875C25.5261 1.88029 21.2369 3.65989 18.0734 6.82342C14.9099 9.98695 13.1303 14.2761 13.125 18.75C13.1303 23.2239 14.9099 27.5131 18.0734 30.6766C21.2369 33.8401 25.5261 35.6197 30 35.625C34.4739 35.6197 38.7631 33.8401 41.9266 30.6766C45.0901 27.5131 46.8697 23.2239 46.875 18.75C46.8697 14.2761 45.0901 9.98695 41.9266 6.82342C38.7631 3.65989 34.4739 1.88029 30 1.875ZM30 28.125C27.5136 28.125 25.129 27.1373 23.3709 25.3791C21.6127 23.621 20.625 21.2364 20.625 18.75C20.625 16.2636 21.6127 13.879 23.3709 12.1209C25.129 10.3627 27.5136 9.375 30 9.375C32.4864 9.375 34.871 10.3627 36.6291 12.1209C38.3873 13.879 39.375 16.2636 39.375 18.75C39.375 21.2364 38.3873 23.621 36.6291 25.3791C34.871 27.1373 32.4864 28.125 30 28.125Z" fill="#D46A29"/>
</g>
<defs>
<clipPath id="clip0_32_46">
<rect width="60" height="60" fill="white"/>
</clipPath>
</defs>
</svg>
