<svg width="60" height="60" viewBox="0 0 60 60" fill="none" xmlns="http://www.w3.org/2000/svg">
<path d="M9.375 3.75L1.875 18.75H35.755L45.155 3.75H9.375Z" fill="#D46A29"/>
<path d="M58.125 16.875L49.6925 3.75L34.925 27.08C31.7376 25.9728 28.2699 25.9728 25.0825 27.08L22.2125 22.5H5.1375L15.2925 38.3075C14.8563 40.484 14.9085 42.7302 15.4456 44.8841C15.9826 47.038 16.9909 49.0458 18.3979 50.7627C19.8049 52.4797 21.5754 53.863 23.5817 54.8128C25.5881 55.7626 27.7802 56.2553 30 56.2553C32.2198 56.2553 34.4119 55.7626 36.4183 54.8128C38.4246 53.863 40.1951 52.4797 41.6021 50.7627C43.0091 49.0458 44.0174 47.038 44.5544 44.8841C45.0915 42.7302 45.1437 40.484 44.7075 38.3075L58.125 16.875ZM30 49.4525C28.9106 49.4715 27.8284 49.2734 26.8164 48.8696C25.8044 48.4659 24.8829 47.8647 24.1058 47.101C23.3287 46.3373 22.7115 45.4265 22.2901 44.4217C21.8688 43.4169 21.6518 42.3383 21.6518 41.2488C21.6518 40.1592 21.8688 39.0806 22.2901 38.0758C22.7115 37.071 23.3287 36.1602 24.1058 35.3965C24.8829 34.6329 25.8044 34.0316 26.8164 33.6279C27.8284 33.2241 28.9106 33.026 30 33.045C32.151 33.0826 34.2011 33.9634 35.709 35.4978C37.2169 37.0322 38.0618 39.0975 38.0618 41.2488C38.0618 43.4001 37.2169 45.4653 35.709 46.9997C34.2011 48.5341 32.151 49.415 30 49.4525Z" fill="#D46A29"/>
<path d="M30 45C30.9946 45 31.9484 44.6049 32.6517 43.9016C33.3549 43.1984 33.75 42.2446 33.75 41.25C33.75 40.2554 33.3549 39.3016 32.6517 38.5983C31.9484 37.8951 30.9946 37.5 30 37.5C29.0054 37.5 28.0516 37.8951 27.3483 38.5983C26.6451 39.3016 26.25 40.2554 26.25 41.25C26.25 42.2446 26.6451 43.1984 27.3483 43.9016C28.0516 44.6049 29.0054 45 30 45Z" fill="#D46A29"/>
</svg>
