<svg width="60" height="60" viewBox="0 0 60 60" fill="none" xmlns="http://www.w3.org/2000/svg">
<path d="M48.75 7.49996H46.875V5.67496C46.875 4.66496 46.1 3.79996 45.09 3.74996C44.8365 3.73778 44.5832 3.77719 44.3454 3.86579C44.1076 3.95439 43.8902 4.09034 43.7065 4.26541C43.5228 4.44049 43.3765 4.65103 43.2766 4.88429C43.1766 5.11756 43.1251 5.36869 43.125 5.62246V7.49996H16.875V5.67496C16.875 4.66496 16.1 3.79996 15.09 3.74996C14.8365 3.73778 14.5832 3.77719 14.3454 3.86579C14.1076 3.95439 13.8902 4.09034 13.7065 4.26541C13.5228 4.44049 13.3765 4.65103 13.2766 4.88429C13.1766 5.11756 13.1251 5.36869 13.125 5.62246V7.49996H11.25C9.26088 7.49996 7.35323 8.29014 5.94671 9.69666C4.54018 11.1032 3.75001 13.0108 3.75001 15V16.405C3.74968 16.4668 3.76161 16.528 3.78511 16.5852C3.80861 16.6424 3.84322 16.6943 3.88693 16.738C3.93064 16.7818 3.98258 16.8164 4.03975 16.8399C4.09693 16.8634 4.15819 16.8753 4.22001 16.875H55.7825C55.9067 16.8743 56.0256 16.8245 56.1132 16.7364C56.2008 16.6484 56.25 16.5292 56.25 16.405V15C56.25 13.0108 55.4598 11.1032 54.0533 9.69666C52.6468 8.29014 50.7391 7.49996 48.75 7.49996Z" fill="#D46A29"/>
<path d="M55.7825 20.625H4.22001C4.15819 20.6247 4.09693 20.6366 4.03975 20.6601C3.98258 20.6836 3.93064 20.7182 3.88693 20.7619C3.84322 20.8056 3.80861 20.8576 3.78511 20.9148C3.76161 20.9719 3.74968 21.0332 3.75001 21.095V48.75C3.75001 50.7391 4.54018 52.6468 5.94671 54.0533C7.35323 55.4598 9.26088 56.25 11.25 56.25H48.75C50.7391 56.25 52.6468 55.4598 54.0533 54.0533C55.4598 52.6468 56.25 50.7391 56.25 48.75V21.0925C56.2493 20.9683 56.1995 20.8494 56.1115 20.7618C56.0234 20.6742 55.9067 20.625 55.7825 20.625ZM28.075 47.005C26.65 48.13 24.7075 48.75 22.6025 48.75C19.3375 48.75 16.9225 46.6225 15.845 44.8C15.7196 44.5879 15.6372 44.3532 15.6025 44.1093C15.5678 43.8653 15.5815 43.617 15.6427 43.3783C15.704 43.1397 15.8117 42.9154 15.9597 42.7184C16.1076 42.5214 16.2929 42.3554 16.505 42.23C16.7171 42.1046 16.9518 42.0222 17.1957 41.9875C17.4397 41.9528 17.6881 41.9665 17.9267 42.0277C18.1653 42.089 18.3896 42.1967 18.5866 42.3447C18.7836 42.4926 18.9496 42.6779 19.075 42.89C19.2 43.1075 20.3825 45 22.6025 45C24.555 45 26.835 44.145 26.835 41.74C26.835 41.0075 26.6925 39.99 26.015 39.2925C25.015 38.2675 23.35 37.8075 22.4875 37.8075C21.9902 37.8075 21.5133 37.61 21.1617 37.2583C20.8101 36.9067 20.6125 36.4298 20.6125 35.9325C20.6125 35.4352 20.8101 34.9583 21.1617 34.6067C21.5133 34.255 21.9902 34.0575 22.4875 34.0575C23.055 34.0575 24.5275 33.7525 25.45 32.81C25.6994 32.5644 25.8963 32.2706 26.0286 31.9466C26.161 31.6226 26.2261 31.275 26.22 30.925C26.22 28.2025 22.865 28.125 22.4825 28.125C20.45 28.125 19.6925 29.3675 19.6625 29.42C19.5383 29.6338 19.373 29.8208 19.1762 29.9705C18.9794 30.1201 18.7549 30.2293 18.5157 30.2919C18.2765 30.3544 18.0273 30.369 17.7824 30.3349C17.5375 30.3007 17.3019 30.2185 17.0889 30.0929C16.8759 29.9673 16.6899 29.8008 16.5416 29.603C16.3932 29.4052 16.2854 29.1801 16.2244 28.9405C16.1634 28.7009 16.1504 28.4516 16.1861 28.207C16.2218 27.9623 16.3055 27.7272 16.4325 27.515C17.3275 25.99 19.3875 24.375 22.4825 24.375C24.4075 24.375 26.205 24.935 27.5375 25.95C29.105 27.1425 29.97 28.91 29.97 30.925C29.977 31.8582 29.7776 32.7814 29.386 33.6286C28.9944 34.4757 28.4204 35.2257 27.705 35.825C28.0565 36.0794 28.386 36.3629 28.69 36.6725C29.9275 37.9375 30.5825 39.69 30.5825 41.74C30.5996 42.7516 30.3821 43.7535 29.947 44.667C29.512 45.5804 28.8712 46.3807 28.075 47.005ZM43.125 46.405C43.125 46.9023 42.9275 47.3792 42.5758 47.7308C42.2242 48.0825 41.7473 48.28 41.25 48.28C40.7527 48.28 40.2758 48.0825 39.9242 47.7308C39.5726 47.3792 39.375 46.9023 39.375 46.405V30.035L36.7375 31.9775C36.336 32.2402 35.8493 32.3392 35.3771 32.2543C34.9049 32.1693 34.4831 31.9068 34.1984 31.5207C33.9137 31.1345 33.7876 30.6541 33.846 30.1779C33.9044 29.7017 34.1429 29.2659 34.5125 28.96L39.5975 25.21C39.9199 24.9727 40.3097 24.8448 40.71 24.845H41.25C41.7473 24.845 42.2242 25.0426 42.5758 25.3942C42.9275 25.7458 43.125 26.2227 43.125 26.72V46.405Z" fill="#D46A29"/>
</svg>
