<svg width="60" height="60" viewBox="0 0 60 60" fill="none" xmlns="http://www.w3.org/2000/svg">
<path d="M35.625 3.53125L1.875 37.2813L22.5 57.9063L56.25 24.1563V3.53125H35.625ZM45 18.5313C44.0054 18.5313 43.0516 18.1362 42.3484 17.4329C41.6451 16.7296 41.25 15.7758 41.25 14.7813C41.25 13.7867 41.6451 12.8329 42.3484 12.1296C43.0516 11.4263 44.0054 11.0313 45 11.0313C45.9946 11.0313 46.9484 11.4263 47.6516 12.1296C48.3549 12.8329 48.75 13.7867 48.75 14.7813C48.75 15.7758 48.3549 16.7296 47.6516 17.4329C46.9484 18.1362 45.9946 18.5313 45 18.5313Z" fill="#D46A29"/>
</svg>
