<svg width="40" height="40" viewBox="0 0 40 40" fill="none" xmlns="http://www.w3.org/2000/svg">
<path d="M0 20.001C0.0019999 31.0284 8.97355 40 20.001 40C31.0285 40 40 31.0284 40 19.999C40 8.97355 31.0285 0.0019989 20.001 0C8.97355 0 0.00199999 8.97155 0.00199999 20.001H0ZM36.0002 19.999C36.0002 28.8226 28.8226 36.0002 20.001 36.0002C11.1814 36.0002 4.0018 28.8226 4.0018 20.001C4.0018 11.1774 11.1814 3.9998 20.001 3.9998C28.8226 4.0018 36.0002 11.1794 36.0002 19.999Z" fill="#033C60"/>
<path d="M18.0051 19.9989V27.9985H22.0049V19.9989H28.0166L20.007 11.9893L11.9994 19.9989H18.0051Z" fill="#033C60"/>
</svg>
