<svg width="43" height="43" viewBox="0 0 43 43" fill="none" xmlns="http://www.w3.org/2000/svg">
<path fill-rule="evenodd" clip-rule="evenodd" d="M21.0833 0C9.43958 0 0 9.43958 0 21.0833C0 32.7271 9.43958 42.1667 21.0833 42.1667C32.7271 42.1667 42.1667 32.7271 42.1667 21.0833C42.1667 9.43958 32.7271 0 21.0833 0ZM25.3134 14.7717C25.6625 14.4103 25.8557 13.9261 25.8514 13.4236C25.847 12.921 25.6454 12.4403 25.2901 12.0849C24.9347 11.7296 24.454 11.528 23.9514 11.5236C23.4489 11.5193 22.9647 11.7124 22.6032 12.0616L14.9366 19.7282C14.5773 20.0877 14.3754 20.5751 14.3754 21.0833C14.3754 21.5916 14.5773 22.079 14.9366 22.4384L22.6032 30.1051C22.9647 30.4542 23.4489 30.6474 23.9514 30.643C24.454 30.6387 24.9347 30.4371 25.2901 30.0817C25.6454 29.7264 25.847 29.2456 25.8514 28.7431C25.8557 28.2406 25.6625 27.7564 25.3134 27.3949L19.0018 21.0833L25.3134 14.7717Z" fill="#033C60"/>
</svg>
