<svg width="40" height="40" viewBox="0 0 40 40" fill="none" xmlns="http://www.w3.org/2000/svg">
<path d="M19.999 0C8.97155 0.0019999 0 8.97355 0 20.001C0 31.0285 8.97155 40 20.001 40C31.0265 40 39.998 31.0285 40 20.001C40 8.97355 31.0285 0.00199999 19.999 0.00199999V0ZM20.001 36.0002C11.1774 36.0002 3.9998 28.8226 3.9998 20.001C3.9998 11.1814 11.1774 4.0018 19.999 4.0018C28.8226 4.0018 36.0002 11.1814 36.0002 20.001C35.9982 28.8226 28.8206 36.0002 20.001 36.0002Z" fill="#033C60"/>
<path d="M20.001 18.0051H12.0014V22.0049H20.001V28.0166L28.0106 20.007L20.001 11.9994V18.0051Z" fill="#033C60"/>
</svg>
