<svg width="54" height="54" viewBox="0 0 54 54" fill="none" xmlns="http://www.w3.org/2000/svg">
<circle cx="27" cy="27" r="26.5" stroke="white"/>
<path d="M37.4793 19.1635L33.9141 36.0123C33.871 36.2161 33.7768 36.4059 33.6402 36.5642C33.5037 36.7226 33.3291 36.8444 33.1325 36.9186C32.936 36.9927 32.7238 37.0168 32.5154 36.9885C32.307 36.9603 32.1091 36.8806 31.9399 36.7569L26.7541 32.9643L23.6123 35.8984C23.5712 35.9368 23.5228 35.9667 23.4698 35.9864C23.4169 36.006 23.3605 36.0151 23.304 36.0129C23.2475 36.0108 23.192 35.9976 23.1408 35.974C23.0895 35.9504 23.0435 35.9169 23.0054 35.8755L22.9379 35.8021L23.4838 30.5724L33.3232 21.673C33.3719 21.629 33.4021 21.5687 33.408 21.5037C33.4139 21.4388 33.395 21.374 33.355 21.3222C33.315 21.2704 33.2569 21.2353 33.1921 21.2238C33.1272 21.2124 33.0604 21.2254 33.0048 21.2603L20.4214 29.1443L15.002 27.3425C14.8579 27.2946 14.7323 27.2037 14.6424 27.0823C14.5526 26.961 14.5029 26.815 14.5001 26.6646C14.4974 26.5141 14.5417 26.3665 14.6271 26.242C14.7124 26.1175 14.8346 26.0221 14.9769 25.9691L36.1809 18.0619C36.3445 18.0009 36.5216 17.9846 36.6937 18.0146C36.8658 18.0446 37.0266 18.1199 37.1593 18.2325C37.292 18.345 37.3917 18.4908 37.448 18.6546C37.5043 18.8184 37.5151 18.9941 37.4793 19.1635Z" stroke="white"/>
</svg>
