<svg width="54" height="54" viewBox="0 0 54 54" fill="none" xmlns="http://www.w3.org/2000/svg">
<path d="M37 32.0057C37 31.9112 37 31.8168 36.9595 31.7223C36.8651 31.4389 36.2038 31.142 35.9339 31.0071C35.1648 30.5753 34.3821 30.157 33.6264 29.7116C33.2756 29.4957 32.8438 29.0909 32.4254 29.0909C31.6023 29.0909 30.4013 31.5334 29.6726 31.5334C29.3082 31.5334 28.8359 31.196 28.5121 31.0071C26.0561 29.6442 24.3558 27.9439 22.9929 25.4879C22.804 25.1641 22.4666 24.6918 22.4666 24.3274C22.4666 23.5987 24.9091 22.3977 24.9091 21.5746C24.9091 21.1562 24.5043 20.7244 24.2884 20.3736C23.843 19.6179 23.4247 18.8352 22.9929 18.0661C22.858 17.7962 22.5611 17.1349 22.2777 17.0405C22.1832 17 22.0888 17 21.9943 17C21.5085 17 20.5639 17.2159 20.1186 17.4183C19.4574 17.7017 19.0256 18.4574 18.6882 19.0646C18.2564 19.8608 18 20.6705 18 21.5746C18 22.8295 18.5128 23.9631 18.9311 25.1101C19.228 25.9332 19.5923 26.7294 20.0511 27.4716C21.468 29.7656 24.2344 32.532 26.5284 33.9489C27.2706 34.4077 28.0668 34.772 28.8899 35.0689C30.0369 35.4872 31.1705 36 32.4254 36C33.3295 36 34.1392 35.7436 34.9354 35.3118C35.5426 34.9744 36.2983 34.5426 36.5817 33.8814C36.7841 33.4361 37 32.4915 37 32.0057Z" stroke="white"/>
<circle cx="27" cy="27" r="26.5" stroke="white"/>
</svg>
