<svg width="54" height="54" viewBox="0 0 54 54" fill="none" xmlns="http://www.w3.org/2000/svg">
<circle cx="27" cy="27" r="26.5" stroke="white"/>
<path fill-rule="evenodd" clip-rule="evenodd" d="M27.1914 17C21.5039 17 16.8828 21.5853 16.8828 27.2287C16.8828 29.0872 17.3887 30.9186 18.3594 32.5058L16.5 38L22.2012 36.1822C23.7324 37.0233 25.4551 37.4574 27.1914 37.4574C32.8789 37.4574 37.5 32.8721 37.5 27.2287C37.5 21.5853 32.8789 17 27.1914 17ZM29.3133 28.8991C29.5698 28.5823 29.8174 28.2764 29.9888 28.2764C30.2212 28.2764 32.4497 29.4295 32.5454 29.5923C32.5728 29.6602 32.5728 29.7416 32.5728 29.7958C32.5728 30.135 32.4634 30.5148 32.3404 30.8268C32.0259 31.5865 30.7544 32.0749 29.9751 32.0749C29.3189 32.0749 27.9654 31.5051 27.3775 31.2338C25.4224 30.352 24.2056 28.8462 23.0298 27.1233C22.5103 26.3637 22.0454 25.4276 22.0591 24.4916V24.383C22.0865 23.4877 22.4146 22.8501 23.0708 22.2396C23.2759 22.0497 23.4947 21.9412 23.7818 21.9412C23.8622 21.9412 23.9426 21.9509 24.0246 21.9609C24.1099 21.9713 24.197 21.9819 24.2876 21.9819C24.6568 21.9819 24.7251 22.0904 24.8619 22.4431C24.9576 22.6737 25.6548 24.5187 25.6548 24.6544C25.6548 24.9443 25.3564 25.2557 25.0953 25.5282C24.8921 25.7402 24.7115 25.9287 24.7115 26.0652C24.7115 26.133 24.7388 26.2009 24.7798 26.2687C25.0806 26.9063 25.6548 27.6388 26.1744 28.1272C26.8033 28.7241 27.4732 29.1175 28.2388 29.4974C28.3345 29.5516 28.4302 29.5923 28.5396 29.5923C28.752 29.5923 29.0377 29.2394 29.3133 28.8991Z" stroke="white"/>
</svg>
