<svg width="23" height="23" viewBox="0 0 23 23" fill="none" xmlns="http://www.w3.org/2000/svg">
<path fill-rule="evenodd" clip-rule="evenodd" d="M11.4822 0.5C5.79468 0.5 1.17358 5.08527 1.17358 10.7287C1.17358 12.5872 1.67944 14.4186 2.65015 16.0058L0.790771 21.5L6.49194 19.6822C8.02319 20.5233 9.74585 20.9574 11.4822 20.9574C17.1697 20.9574 21.7908 16.3721 21.7908 10.7287C21.7908 5.08527 17.1697 0.5 11.4822 0.5ZM13.604 12.3991C13.8605 12.0823 14.1082 11.7764 14.2796 11.7764C14.512 11.7764 16.7405 12.9295 16.8362 13.0923C16.8636 13.1602 16.8636 13.2416 16.8636 13.2958C16.8636 13.635 16.7542 14.0148 16.6311 14.3268C16.3167 15.0865 15.0452 15.5749 14.2659 15.5749C13.6097 15.5749 12.2561 15.0051 11.6682 14.7338C9.71317 13.852 8.49637 12.3462 7.32059 10.6233C6.80106 9.86366 6.33622 8.92761 6.34989 7.99156V7.88304C6.37723 6.98769 6.70536 6.35009 7.36161 5.73963C7.56669 5.5497 7.78544 5.44118 8.07255 5.44118C8.15294 5.44118 8.23333 5.45095 8.31532 5.46091C8.40067 5.47129 8.48776 5.48187 8.5784 5.48187C8.94755 5.48187 9.01591 5.5904 9.15262 5.94311C9.24833 6.17373 9.94559 8.01869 9.94559 8.15435C9.94559 8.44429 9.64718 8.75568 9.38603 9.02819C9.18285 9.2402 9.00223 9.42868 9.00223 9.56521C9.00223 9.63304 9.02958 9.70087 9.07059 9.7687C9.37137 10.4063 9.94559 11.1388 10.4651 11.6272C11.094 12.2241 11.764 12.6175 12.5296 12.9974C12.6253 13.0516 12.721 13.0923 12.8304 13.0923C13.0428 13.0923 13.3285 12.7394 13.604 12.3991Z" stroke="white"/>
</svg>
