<svg width="24" height="21" viewBox="0 0 24 21" fill="none" xmlns="http://www.w3.org/2000/svg">
<path d="M23.4793 1.66726L19.9141 18.5708C19.871 18.7753 19.7768 18.9657 19.6402 19.1246C19.5037 19.2834 19.3291 19.4057 19.1325 19.48C18.936 19.5544 18.7238 19.5786 18.5154 19.5502C18.307 19.5219 18.1091 19.442 17.9399 19.3179L12.7541 15.5129L9.61233 18.4565C9.57121 18.4951 9.52277 18.5251 9.46984 18.5448C9.4169 18.5645 9.36054 18.5736 9.30405 18.5715C9.24755 18.5693 9.19204 18.5561 9.14077 18.5324C9.0895 18.5087 9.04349 18.4751 9.00543 18.4336L8.93792 18.36L9.48382 13.1132L19.3232 4.18492C19.3719 4.14084 19.4021 4.08025 19.408 4.0151C19.4139 3.94995 19.395 3.88498 19.355 3.83299C19.315 3.78101 19.2569 3.7458 19.1921 3.7343C19.1272 3.72279 19.0604 3.73584 19.0048 3.77086L6.42138 11.6805L1.00197 9.87289C0.857873 9.82481 0.732282 9.73363 0.64243 9.61186C0.552579 9.49008 0.502869 9.34368 0.50012 9.19273C0.497372 9.04178 0.541719 8.89369 0.627078 8.76877C0.712437 8.64385 0.834626 8.54821 0.976881 8.49499L22.1809 0.562079C22.3445 0.500948 22.5216 0.48458 22.6937 0.514684C22.8658 0.544788 23.0266 0.620259 23.1593 0.733207C23.292 0.846155 23.3917 0.992432 23.448 1.15675C23.5043 1.32106 23.5151 1.49738 23.4793 1.66726Z" stroke="white"/>
</svg>
