<svg width="16" height="30" viewBox="0 0 16 30" fill="none" xmlns="http://www.w3.org/2000/svg">
<path fill-rule="evenodd" clip-rule="evenodd" d="M3.92258 0.206026C6.33338 -0.0686753 8.76751 -0.0686753 11.1783 0.206026L13.6464 0.487858C13.8208 0.507625 13.9886 0.566803 14.1369 0.660928C14.2852 0.755054 14.4102 0.881671 14.5025 1.03123C14.5948 1.18079 14.6521 1.34939 14.6698 1.52431C14.6876 1.69923 14.6655 1.87592 14.6051 2.04103L11.1984 11.357H14.8402C15.0277 11.357 15.2124 11.4025 15.3785 11.4896C15.5445 11.5768 15.6871 11.7029 15.7938 11.8573C15.9005 12.0117 15.9683 12.1897 15.9912 12.376C16.0142 12.5623 15.9918 12.7515 15.9258 12.9272L15.632 13.7123C13.5889 19.1618 10.7003 24.2545 7.07261 28.8027L6.46951 29.5615C6.31956 29.7503 6.11463 29.8877 5.88316 29.9545C5.65169 30.0214 5.40518 30.0144 5.17786 29.9345C4.95054 29.8547 4.75369 29.7059 4.61465 29.5089C4.4756 29.3119 4.40127 29.0765 4.40197 28.8352V17.7602H1.58597C1.29606 17.7601 1.01668 17.6514 0.802866 17.4553C0.589053 17.2593 0.456315 16.9901 0.430803 16.701L0.240595 14.5609C-0.0801983 10.9408 -0.0801983 7.29944 0.240595 3.67938L0.430803 1.53931C0.454035 1.27251 0.568632 1.02195 0.755192 0.830051C0.941751 0.638156 1.18881 0.516721 1.45452 0.48631L3.92104 0.207574L3.92258 0.206026ZM10.917 2.51333C8.67984 2.25835 6.42105 2.25835 4.18393 2.51333L2.65762 2.68832L2.55092 3.88378C2.24164 7.36797 2.24164 10.8723 2.55092 14.3565L2.6468 15.4374H5.56177C5.86937 15.4374 6.16437 15.5597 6.38188 15.7775C6.59938 15.9953 6.72157 16.2907 6.72157 16.5988V25.4316C9.35518 21.8027 11.5183 17.8539 13.1593 13.6798H9.53912C9.35255 13.6799 9.16871 13.6349 9.0032 13.5487C8.83769 13.4625 8.69539 13.3375 8.58839 13.1845C8.48139 13.0314 8.41284 12.8548 8.38855 12.6695C8.36427 12.4843 8.38498 12.2959 8.44891 12.1204L11.919 2.62793L10.917 2.51333Z" fill="#D46A29"/>
</svg>
