<svg width="137" height="87" viewBox="0 0 137 87" fill="none" xmlns="http://www.w3.org/2000/svg">
<rect x="1.5" y="1.5" width="69.3333" height="55.5366" fill="white" stroke="#D46A29" stroke-width="3"/>
<rect x="9.26665" y="8.80487" width="18.6667" height="41.9024" fill="#E5F5FD" stroke="#D46A29" stroke-width="2"/>
<rect x="34.0667" y="8.80487" width="29" height="41.9024" fill="#E5F5FD" stroke="#D46A29" stroke-width="2"/>
<path d="M17.712 74.1153C17.712 75.4433 17.544 76.6513 17.208 77.7393C16.888 78.8113 16.392 79.7393 15.72 80.5233C15.064 81.3073 14.216 81.9073 13.176 82.3233C12.152 82.7393 10.944 82.9473 9.552 82.9473C8.16 82.9473 6.944 82.7393 5.904 82.3233C4.88 81.8913 4.032 81.2913 3.36 80.5233C2.704 79.7393 2.208 78.8033 1.872 77.7153C1.552 76.6273 1.392 75.4193 1.392 74.0913C1.392 72.3153 1.68 70.7713 2.256 69.4593C2.848 68.1473 3.744 67.1313 4.944 66.4113C6.16 65.6753 7.704 65.3073 9.576 65.3073C11.432 65.3073 12.96 65.6753 14.16 66.4113C15.36 67.1313 16.248 68.1553 16.824 69.4833C17.416 70.7953 17.712 72.3393 17.712 74.1153ZM5.208 74.1153C5.208 75.3153 5.36 76.3473 5.664 77.2113C5.968 78.0753 6.44 78.7393 7.08 79.2033C7.72 79.6673 8.544 79.8993 9.552 79.8993C10.592 79.8993 11.424 79.6673 12.048 79.2033C12.688 78.7393 13.152 78.0753 13.44 77.2113C13.744 76.3473 13.896 75.3153 13.896 74.1153C13.896 72.3073 13.56 70.8913 12.888 69.8673C12.216 68.8433 11.112 68.3313 9.576 68.3313C8.552 68.3313 7.72 68.5633 7.08 69.0273C6.44 69.4913 5.968 70.1553 5.664 71.0193C5.36 71.8833 5.208 72.9153 5.208 74.1153ZM29.5656 69.6033H33.5016L28.3176 75.8913L33.9576 82.7073H29.9016L24.5496 76.0593V82.7073H20.9736V69.6033H24.5496V75.9633L29.5656 69.6033ZM39.4089 69.6033V74.6433H44.4009V69.6033H47.9769V82.7073H44.4009V77.3073H39.4089V82.7073H35.8329V69.6033H39.4089ZM57.0996 69.3393C58.8596 69.3393 60.2036 69.7233 61.1316 70.4913C62.0756 71.2433 62.5476 72.4033 62.5476 73.9713V82.7073H60.0516L59.3556 80.9313H59.2596C58.8916 81.3953 58.5076 81.7793 58.1076 82.0833C57.7236 82.3873 57.2756 82.6033 56.7636 82.7313C56.2676 82.8753 55.6516 82.9473 54.9156 82.9473C54.1476 82.9473 53.4516 82.8033 52.8276 82.5153C52.2196 82.2113 51.7396 81.7553 51.3876 81.1473C51.0356 80.5233 50.8596 79.7393 50.8596 78.7953C50.8596 77.4033 51.3476 76.3793 52.3236 75.7233C53.2996 75.0513 54.7636 74.6833 56.7156 74.6193L58.9956 74.5473V73.9713C58.9956 73.2833 58.8116 72.7793 58.4436 72.4593C58.0916 72.1393 57.5956 71.9793 56.9556 71.9793C56.3156 71.9793 55.6916 72.0753 55.0836 72.2673C54.4756 72.4433 53.8676 72.6673 53.2596 72.9393L52.0836 70.5153C52.7876 70.1473 53.5636 69.8593 54.4116 69.6513C55.2756 69.4433 56.1716 69.3393 57.0996 69.3393ZM57.6036 76.6833C56.4516 76.7153 55.6516 76.9233 55.2036 77.3073C54.7556 77.6913 54.5316 78.1953 54.5316 78.8193C54.5316 79.3633 54.6916 79.7553 55.0116 79.9953C55.3316 80.2193 55.7476 80.3313 56.2596 80.3313C57.0276 80.3313 57.6756 80.1073 58.2036 79.6593C58.7316 79.1953 58.9956 78.5473 58.9956 77.7153V76.6353L57.6036 76.6833ZM66.4959 82.7073V65.5713H80.0559V82.7073H76.4319V68.5953H70.1199V82.7073H66.4959ZM95.8268 82.7073H92.2508V72.2913H88.9628C88.8028 74.2113 88.6028 75.8513 88.3628 77.2113C88.1388 78.5553 87.8508 79.6513 87.4988 80.4993C87.1628 81.3473 86.7308 81.9713 86.2028 82.3713C85.6748 82.7553 85.0268 82.9473 84.2588 82.9473C83.8428 82.9473 83.4668 82.9153 83.1308 82.8513C82.7948 82.7873 82.4908 82.6913 82.2188 82.5633V79.7073C82.3948 79.7713 82.5788 79.8273 82.7708 79.8753C82.9628 79.9233 83.1628 79.9473 83.3708 79.9473C83.5948 79.9473 83.8028 79.8593 83.9948 79.6833C84.2028 79.5073 84.3948 79.1953 84.5708 78.7473C84.7628 78.2993 84.9388 77.6833 85.0988 76.8993C85.2588 76.1153 85.4028 75.1313 85.5308 73.9473C85.6748 72.7473 85.8028 71.2993 85.9148 69.6033H95.8268V82.7073ZM117.656 76.1313C117.656 77.5873 117.408 78.8273 116.912 79.8513C116.416 80.8593 115.704 81.6273 114.776 82.1553C113.864 82.6833 112.776 82.9473 111.512 82.9473C110.44 82.9473 109.472 82.7473 108.608 82.3473C107.76 81.9313 107.064 81.3073 106.52 80.4753C105.992 79.6433 105.648 78.5873 105.488 77.3073H103.136V82.7073H99.5595V69.6033H103.136V74.6433H105.536C105.696 73.5073 106.04 72.5473 106.568 71.7633C107.112 70.9793 107.808 70.3873 108.656 69.9873C109.52 69.5713 110.496 69.3633 111.584 69.3633C112.768 69.3633 113.816 69.6273 114.728 70.1553C115.64 70.6833 116.352 71.4513 116.864 72.4593C117.392 73.4513 117.656 74.6753 117.656 76.1313ZM109.088 76.1313C109.088 76.9953 109.168 77.7233 109.328 78.3153C109.504 78.8913 109.776 79.3313 110.144 79.6353C110.512 79.9233 110.984 80.0673 111.56 80.0673C112.136 80.0673 112.6 79.9233 112.952 79.6353C113.32 79.3313 113.584 78.8913 113.744 78.3153C113.92 77.7233 114.008 76.9953 114.008 76.1313C114.008 75.2673 113.92 74.5473 113.744 73.9713C113.584 73.3953 113.32 72.9633 112.952 72.6753C112.6 72.3873 112.128 72.2433 111.536 72.2433C110.96 72.2433 110.488 72.3873 110.12 72.6753C109.768 72.9633 109.504 73.3953 109.328 73.9713C109.168 74.5473 109.088 75.2673 109.088 76.1313ZM125.934 82.9473C124.638 82.9473 123.534 82.7153 122.622 82.2513C121.71 81.7713 121.014 81.0353 120.534 80.0433C120.054 79.0513 119.814 77.7793 119.814 76.2273C119.814 74.6273 120.086 73.3233 120.63 72.3153C121.174 71.3073 121.926 70.5633 122.886 70.0833C123.862 69.6033 124.982 69.3633 126.246 69.3633C127.142 69.3633 127.918 69.4513 128.574 69.6273C129.246 69.8033 129.83 70.0113 130.326 70.2513L129.27 73.0113C128.71 72.7873 128.182 72.6033 127.686 72.4593C127.206 72.3153 126.726 72.2433 126.246 72.2433C125.622 72.2433 125.102 72.3953 124.686 72.6993C124.27 72.9873 123.958 73.4273 123.75 74.0193C123.558 74.5953 123.462 75.3233 123.462 76.2033C123.462 77.0673 123.566 77.7873 123.774 78.3633C123.998 78.9233 124.318 79.3473 124.734 79.6353C125.15 79.9073 125.654 80.0433 126.246 80.0433C126.998 80.0433 127.662 79.9473 128.238 79.7553C128.814 79.5473 129.374 79.2673 129.918 78.9153V81.9633C129.374 82.3153 128.798 82.5633 128.19 82.7073C127.598 82.8673 126.846 82.9473 125.934 82.9473Z" fill="#512306"/>
</svg>
